# xmcd CD database file
#
# Track frame offsets:
#	150
#	23287
#	36851
#	54727
#	74629
#	93490
#	107852
#	123473
#	142108
#	166133
#	181000
#	196265
#
# Disc length: 2847 seconds
#
# Revision: 2
# Processed by: cddbd v1.5.2PL0 Copyright (c) Steve Scherf et al.
# Submitted via: CDex 1.51
#
DISCID=a40b1d0c
DTITLE=Bo Ramsey - Stranger Blues
DYEAR=2006
DGENRE=Blues
TTITLE0=Stranger Blues
TTITLE1=Hate To See You Go
TTITLE2=Sitting On Top Of The World
TTITLE3=Jump, Baby, Jump
TTITLE4=Crazy Mixed Up World
TTITLE5=Little Geneva
TTITLE6=You Got Me Dizzy
TTITLE7=I Wanna Get Funky
TTITLE8=No Place To Go
TTITLE9=Unseeing Eye
TTITLE10=Freight Train
TTITLE11=Where The Sun Never Goes Down
EXTD=YEAR: 2006
EXTT0=
EXTT1=
EXTT2=
EXTT3=
EXTT4=
EXTT5=
EXTT6=
EXTT7=
EXTT8=
EXTT9=
EXTT10=
EXTT11=
PLAYORDER=
